<mxfile host="app.diagrams.net" agent="Mozilla/5.0 (Windows NT 10.0; Win64; x64) AppleWebKit/537.36 (KHTML, like Gecko) Chrome/137.0.0.0 Safari/537.36" version="27.2.0">
  <diagram name="Page-1" id="IygSzYJKI3zrrV-4_MAw">
    <mxGraphModel dx="872" dy="563" grid="1" gridSize="10" guides="1" tooltips="1" connect="1" arrows="1" fold="1" page="1" pageScale="1" pageWidth="850" pageHeight="1100" math="0" shadow="0">
      <root>
        <mxCell id="0" />
        <mxCell id="1" parent="0" />
        <mxCell id="OcbvD5TkpZ3bCiHHoAHn-13" value="" style="edgeStyle=none;curved=1;rounded=0;orthogonalLoop=1;jettySize=auto;html=1;fontSize=12;startSize=8;endSize=8;" edge="1" parent="1" source="OcbvD5TkpZ3bCiHHoAHn-1" target="OcbvD5TkpZ3bCiHHoAHn-7">
          <mxGeometry relative="1" as="geometry">
            <Array as="points">
              <mxPoint x="503" y="110" />
            </Array>
          </mxGeometry>
        </mxCell>
        <mxCell id="OcbvD5TkpZ3bCiHHoAHn-1" value="user&lt;div&gt;authentication&lt;/div&gt;" style="rounded=0;whiteSpace=wrap;html=1;fontStyle=1;fontSize=18;" vertex="1" parent="1">
          <mxGeometry x="425" y="70" width="155" height="40" as="geometry" />
        </mxCell>
        <mxCell id="OcbvD5TkpZ3bCiHHoAHn-5" value="property&lt;div&gt;management&lt;/div&gt;" style="rounded=0;whiteSpace=wrap;html=1;fontSize=18;" vertex="1" parent="1">
          <mxGeometry x="240" y="150" width="150" height="50" as="geometry" />
        </mxCell>
        <mxCell id="OcbvD5TkpZ3bCiHHoAHn-6" value="search&lt;div&gt;filter&lt;/div&gt;" style="rounded=0;whiteSpace=wrap;html=1;fontSize=18;" vertex="1" parent="1">
          <mxGeometry x="600" y="150" width="150" height="50" as="geometry" />
        </mxCell>
        <mxCell id="OcbvD5TkpZ3bCiHHoAHn-14" value="" style="edgeStyle=none;curved=1;rounded=0;orthogonalLoop=1;jettySize=auto;html=1;fontSize=12;startSize=8;endSize=8;" edge="1" parent="1" source="OcbvD5TkpZ3bCiHHoAHn-7" target="OcbvD5TkpZ3bCiHHoAHn-10">
          <mxGeometry relative="1" as="geometry" />
        </mxCell>
        <mxCell id="OcbvD5TkpZ3bCiHHoAHn-18" style="edgeStyle=none;curved=1;rounded=0;orthogonalLoop=1;jettySize=auto;html=1;exitX=0;exitY=0.25;exitDx=0;exitDy=0;fontSize=12;startSize=8;endSize=8;entryX=0.613;entryY=1.04;entryDx=0;entryDy=0;entryPerimeter=0;" edge="1" parent="1" source="OcbvD5TkpZ3bCiHHoAHn-7" target="OcbvD5TkpZ3bCiHHoAHn-5">
          <mxGeometry relative="1" as="geometry">
            <mxPoint x="320" y="240" as="targetPoint" />
            <Array as="points" />
          </mxGeometry>
        </mxCell>
        <mxCell id="OcbvD5TkpZ3bCiHHoAHn-25" style="edgeStyle=none;curved=1;rounded=0;orthogonalLoop=1;jettySize=auto;html=1;exitX=1;exitY=0.25;exitDx=0;exitDy=0;entryX=0.5;entryY=1;entryDx=0;entryDy=0;fontSize=12;startSize=8;endSize=8;" edge="1" parent="1" source="OcbvD5TkpZ3bCiHHoAHn-7" target="OcbvD5TkpZ3bCiHHoAHn-6">
          <mxGeometry relative="1" as="geometry" />
        </mxCell>
        <mxCell id="OcbvD5TkpZ3bCiHHoAHn-7" value="core&lt;div&gt;Backend&lt;/div&gt;&lt;div&gt;Features for&lt;/div&gt;&lt;div&gt;Airbnb clone&lt;/div&gt;" style="shape=hexagon;perimeter=hexagonPerimeter2;whiteSpace=wrap;html=1;fixedSize=1;fontSize=18;" vertex="1" parent="1">
          <mxGeometry x="433.13" y="210" width="136.87" height="110" as="geometry" />
        </mxCell>
        <mxCell id="OcbvD5TkpZ3bCiHHoAHn-8" value="&lt;font style=&quot;font-size: 18px;&quot;&gt;payment&lt;/font&gt;" style="rounded=0;whiteSpace=wrap;html=1;" vertex="1" parent="1">
          <mxGeometry x="240" y="320" width="150" height="40" as="geometry" />
        </mxCell>
        <mxCell id="OcbvD5TkpZ3bCiHHoAHn-9" value="&lt;font style=&quot;font-size: 18px;&quot;&gt;Admin panel&lt;/font&gt;" style="rounded=0;whiteSpace=wrap;html=1;" vertex="1" parent="1">
          <mxGeometry x="600" y="320" width="150" height="40" as="geometry" />
        </mxCell>
        <mxCell id="OcbvD5TkpZ3bCiHHoAHn-10" value="&lt;font style=&quot;font-size: 18px;&quot;&gt;Notification&lt;/font&gt;" style="rounded=0;whiteSpace=wrap;html=1;" vertex="1" parent="1">
          <mxGeometry x="436.88" y="400" width="141.25" height="40" as="geometry" />
        </mxCell>
        <mxCell id="OcbvD5TkpZ3bCiHHoAHn-11" value="&lt;font style=&quot;font-size: 18px;&quot;&gt;profile&lt;/font&gt;&lt;div&gt;&lt;font style=&quot;font-size: 18px;&quot;&gt;management&lt;/font&gt;&lt;/div&gt;" style="rounded=0;whiteSpace=wrap;html=1;" vertex="1" parent="1">
          <mxGeometry x="240" y="440" width="150" height="50" as="geometry" />
        </mxCell>
        <mxCell id="OcbvD5TkpZ3bCiHHoAHn-12" value="&lt;font style=&quot;font-size: 18px;&quot;&gt;Review and Rating&lt;/font&gt;&lt;div&gt;&lt;font style=&quot;font-size: 18px;&quot;&gt;System&lt;/font&gt;&lt;/div&gt;" style="rounded=0;whiteSpace=wrap;html=1;" vertex="1" parent="1">
          <mxGeometry x="610" y="440" width="160" height="50" as="geometry" />
        </mxCell>
        <mxCell id="OcbvD5TkpZ3bCiHHoAHn-20" style="edgeStyle=none;curved=1;rounded=0;orthogonalLoop=1;jettySize=auto;html=1;exitX=0;exitY=0.75;exitDx=0;exitDy=0;entryX=0.567;entryY=-0.1;entryDx=0;entryDy=0;entryPerimeter=0;fontSize=12;startSize=8;endSize=8;" edge="1" parent="1" source="OcbvD5TkpZ3bCiHHoAHn-7" target="OcbvD5TkpZ3bCiHHoAHn-8">
          <mxGeometry relative="1" as="geometry" />
        </mxCell>
        <mxCell id="OcbvD5TkpZ3bCiHHoAHn-21" style="edgeStyle=none;curved=1;rounded=0;orthogonalLoop=1;jettySize=auto;html=1;exitX=1;exitY=0.75;exitDx=0;exitDy=0;entryX=0.453;entryY=-0.075;entryDx=0;entryDy=0;entryPerimeter=0;fontSize=12;startSize=8;endSize=8;" edge="1" parent="1" source="OcbvD5TkpZ3bCiHHoAHn-7" target="OcbvD5TkpZ3bCiHHoAHn-9">
          <mxGeometry relative="1" as="geometry" />
        </mxCell>
      </root>
    </mxGraphModel>
  </diagram>
</mxfile>
